# xmcd
#
# Track frame offsets:
#	150
#	11156
#	21919
#	30802
#	42476
#	53283
#	65854
#	75129
#	85123
#	96705
#	109183
#	119104
#	130596
#	142330
#	154128
#	168964
#	180045
#	194322
#	206526
#	221477
#
# Disc length: 3103 seconds
#
# Revision: 1
# Processed by: cddbd v1.5.2PL0 Copyright (c) Steve Scherf et al.
# Submitted via: audiograbber 1.83.01
#
DISCID=0d0c1d14
DTITLE=Philomena Begley - The Way Old Friends Do [CD2)
DYEAR=1900
DGENRE=
TTITLE0=I Love A Ramblin' Man
TTITLE1=I Really Think I'm Crying
TTITLE2=Darling, Are You Ever Coming Home
TTITLE3=How Can I Face Tomorrow
TTITLE4=You And Me, Her And Him
TTITLE5=Never Again
TTITLE6=Truck Driver's Sweetheart
TTITLE7=You Never Were Mine
TTITLE8=(I've Got) Texas In My Heart
TTITLE9=Don't Make Me Go To School
TTITLE10=Heartaches Follow Me
TTITLE11=Ballad Of Billy Joe
TTITLE12=The Key's In The Mailbox
TTITLE13=Faded Love
TTITLE14=Rose Of Mooncoin
TTITLE15=When Two Worlds Collide
TTITLE16=Mull Of Kintyre
TTITLE17=Scotland Again
TTITLE18=Blue House Painted White
TTITLE19=Cottage On The Old Dungannon Road
EXTD=
EXTT0=
EXTT1=
EXTT2=
EXTT3=
EXTT4=
EXTT5=
EXTT6=
EXTT7=
EXTT8=
EXTT9=
EXTT10=
EXTT11=
EXTT12=
EXTT13=
EXTT14=
EXTT15=
EXTT16=
EXTT17=
EXTT18=
EXTT19=
PLAYORDER=
